<svg id="影" xmlns="http://www.w3.org/2000/svg" width="1919.952" height="1079.973" viewBox="0 0 1440 810">
  <metadata><?xpacket begin="﻿" id="W5M0MpCehiHzreSzNTczkc9d"?>
<x:xmpmeta xmlns:x="adobe:ns:meta/" x:xmptk="Adobe XMP Core 5.6-c142 79.160924, 2017/07/13-01:06:39        ">
   <rdf:RDF xmlns:rdf="http://www.w3.org/1999/02/22-rdf-syntax-ns#">
      <rdf:Description rdf:about=""/>
   </rdf:RDF>
</x:xmpmeta>
                                                                                                    
                                                                                                    
                                                                                                    
                                                                                                    
                                                                                                    
                                                                                                    
                                                                                                    
                                                                                                    
                                                                                                    
                                                                                                    
                                                                                                    
                                                                                                    
                                                                                                    
                                                                                                    
                                                                                                    
                                                                                                    
                                                                                                    
                                                                                                    
                                                                                                    
                                                                                                    
                           
<?xpacket end="w"?></metadata>
<defs>
    <style>
      .cls-1 {
        fill: #885acd;
      }

      .cls-2 {
        fill: #530d27;
      }

      .cls-10, .cls-11, .cls-12, .cls-13, .cls-14, .cls-15, .cls-16, .cls-17, .cls-18, .cls-19, .cls-2, .cls-20, .cls-3, .cls-4, .cls-5, .cls-6, .cls-7, .cls-8, .cls-9 {
        fill-rule: evenodd;
      }

      .cls-3 {
        fill: #370111;
      }

      .cls-4 {
        fill: #f9d8f9;
      }

      .cls-5 {
        fill: #e7cee7;
      }

      .cls-6 {
        fill: #ffc5a8;
      }

      .cls-7 {
        fill: #edb1a6;
      }

      .cls-8 {
        fill: #c993b1;
      }

      .cls-9 {
        fill: #764060;
      }

      .cls-10 {
        fill: #480b21;
      }

      .cls-11 {
        fill: #c476a3;
      }

      .cls-12 {
        fill: #6c204f;
      }

      .cls-13 {
        fill: #891842;
      }

      .cls-14 {
        fill: #7a1891;
      }

      .cls-15 {
        fill: #a231e1;
      }

      .cls-16 {
        fill: #ff83f2;
      }

      .cls-17 {
        fill: #6f3968;
      }

      .cls-18 {
        fill: #d3a8d3;
      }

      .cls-19 {
        fill: #5a1935;
      }

      .cls-20 {
        fill: #ca8cca;
      }
    </style>
  </defs>
  <rect id="長方形_1" data-name="長方形 1" class="cls-1" x="-20" y="-28" width="1492" height="864"/>
  <path id="服" class="cls-2" d="M783,813l-5-43a110.525,110.525,0,0,1,12-18c6.572-7.612,12-10,12-10s-10.862-13.365-16-23-14.755-25.521-16-33-3.458-13.334-3-21,2.732-16.607,7-21a92.622,92.622,0,0,1,15-13,88.306,88.306,0,0,1,20-10c4.291-1.283,11-3,11-3s3.26-22.482,12-36,16.981-27.8,27-39,26.309-26.713,38-27,35.878,3.212,45,4,19.53,0.094,24-1,5,1,5,1-6.03-2.343-4,9,10.18,43.4,13,53,7.9,33,14,42,5.909,12.133,22,14,28,2,28,2,38.09,1.844,49,1a210.951,210.951,0,0,1,26-1c12.7,0.156,25.61-.424,40,0s33.59-.407,38-4,3.93-9.962,10-24,14.3-35.132,18-43,11.82-34.455,12-36-4-6-4-6,4.76,5.04,16,7,48.79,1.107,65,7,21.13,13.183,34,34,21.7,52.577,27,67,6.8,23,13,32,9.41,11.268,17,17,11.13,10.647,11,16-0.53,10.713-6,20-10.04,16.683-15,23-15,17-15,17,9.76,1.206,15,10,6.61,13.554,7,21,0,17,0,17Z"/>
  <path id="シェイプ_20" data-name="シェイプ 20" class="cls-3" d="M917,777l8,36,25,1s-15.581-13.8-21-22-13-32-13-32Z"/>
  <path id="シェイプ_18" data-name="シェイプ 18" class="cls-3" d="M768,677s9.317,30.895,15,38,19,25,19,25a99.359,99.359,0,0,1,23,4c11.383,3.574,21,14,21,14s8.523-6.488,19-2,29.074,19.02,33,23a95.444,95.444,0,0,1,7,8s-0.2-7.422,5-8,7-2,7-2-2.947-35.33,0-50,14.825-82.717,16-85,10-36,10-36l-25-23s-8.386,4.466-9,34,4,61,4,61-12.116,14.265-22,20-20,11-20,11a81.762,81.762,0,0,0-14-15c-7.9-6.27-17.493-11.067-33-2s-30,19-30,19-14.109-20.285-17-24S768,677,768,677Z"/>
  <path id="シェイプ_19" data-name="シェイプ 19" class="cls-3" d="M1190,644s13.12,29.182,13,34,11.57-28.684,10-31,15.71,20.842,12,40-49.87,95.294-61,106-52.24-5.349-56-10-4-12-4-12l-13,14-4-12s-10.28,20.277-30,35,212,4,212,4l3-30,8,29,11-37s23.44-12.27,39-13,44.28-1.579,49,1,5,1,5,1l21-29s12.57-18.927,12-25-3.42-7.489-17-21-25.17-32.633-29-53-13.38,5.963-17,22-8.85,46.981-22,49-26.71-3.384-32-13-18.95-17.548-20-36-16.92-53.815-8-62,17.51-11,11-16-4.87-12.311-2-19-2.96-.413-3-7,2-16,2-16-21.07.846-32-3-13-6-13-6,2.68,1.818,2,6-18.39,52.246-20,56-12.32,28.353-14,32-2.92,12.164-6,14a34.645,34.645,0,0,1-8,3Z"/>
  <path id="顔" class="cls-4" d="M1045,432s-34.72-14.027-46-22c-11.326-8.007-27.089-13.912-40.213-42.145C945.639,339.572,929,290,929,290s-4.042-31.974-5-35-4.093-34.243-4-40,3-19,3-19c-0.215-.987,6.443,16.087,7,23,0.542,6.724,1.355,25.385,2,28s3,13,3,13h19s-4.583-17.5-5-35,2.583-24.566,4-31,4-9,4-9a273.313,273.313,0,0,0,1,29c1.366,13.38,6,38,6,38s0.672-7.426,1-15,0.248-23.344,2-30,4.782-23.181,6.265-31.008c1.779-9.389,6.261-19.9,8.876-24.112,4.124-6.638,9.687-13.179,9.859-12.88,0,0,.521,20.038-3,30-2.6,7.367-.464,23.891,0,34s0.49,23.828,3,33a96.754,96.754,0,0,1,3,14s-0.735-21.994,0-29,6.92-30.825,10-54c3.57-26.837,31-64.466,32-63,0,0-3.63,54.94-2,66s40-7,40-7l23,69,26-138,20-38,119,121,3,41s-1.44,26.41-3,37-3,14-3,14l10-26s-2.06,27.895-5,38a77.225,77.225,0,0,1-8,18l9-8s-2.59,49.464-7,55-20,8-20,8-9.26,30.152-25,42-59,34-59,34l-4,45s4.94-.558,7,3,13,20,13,20,16.85,8.976,21,12,28,16,28,16-9.35,7.842-10,15-3,9-3,9,5.32-5.7,5-3c-0.34,2.839,2.68,8.491-.52,14.148A148.435,148.435,0,0,1,1203,574l-3-2s-4.19,2.314-6,6-7.26,18.947-7.24,20.264c0.02,1.55,3.24,7.736,3.24,7.736l-9,8s-2.88-5.2-5-6-6.58-.415-15,4-14.19,5.8-19,6-26.44-.618-29,0-7.01,4.746-8,6-10,2-10,2,1.38-5.762-13-5-43.36.821-45-1-0.29-3.715-10-9-13.7-4.378-17-6-7.27-14.878-7-19-8.426-20.95-10-25-2.347-13.044,1-14,5.223-11.96,0-19-9.657-9.743-7-13c2.964-3.634,27.56-17.24,27.88-13.468,0,0,10.52-6.1,11.12-6.532s0.39-4.051,4-7,7.87-4.556,10-6,4-5,4-5Z"/>
  <path id="シェイプ_26" data-name="シェイプ 26" class="cls-5" d="M1045,431v28s8.55,8.7,15,13,46.14,31.01,53,36a49.483,49.483,0,0,0,14,7l9-6,13-12s-0.01-11.715.55-21.273S1152,448,1152,448l2-19s-32.53,16.356-41,20-5.41,4.774-16,4-14.77-3.9-24-8S1045,431,1045,431Zm104,457"/>
  <path id="髪" class="cls-6" d="M853,118a90.016,90.016,0,0,0-11,29c-3.322,17.138-10.035,42.533-9,64s4.292,36.847,2,61-2.764,54.211-8,76-11.911,30.154-23,54-36.47,78.343-46,104-9.2,18.579-15,46-12.86,68.417-12,73,0,2,0,2,11.574-1.051,16,6,5.276,8.911,10,26,9.1,34.583,10,46,11,65,11,65,12.589-22.864,19-26,5-3,5-3-12.071-13.037-20-28-20.722-41.78-15-54,5.926-17.163,21-27a142.816,142.816,0,0,1,32-15,108.285,108.285,0,0,1,16-41c13.486-20.795,18.842-32.375,34-44s14.956-17.867,40-16,33.673,5.73,43,5c4.291-.336,17-2,17-2s4.552,5.047,10,10c5.551,5.046,12,10,12,10s-17.828-27.945-16-30c8.586-9.654,12.87-11.76,15-9a38.4,38.4,0,0,1,5,10,36.117,36.117,0,0,0,9-3c4.57-2.263,20.52-7.264,22-10s4.6-8.173,8-11,11-8,11-8l-1-47s-34.63-14.655-46-24-24.427-13.113-38-46-30.973-67.9-31-70-8.562-70.162-8-80,1-13,1-13,5.813,41.907,8,51a137.182,137.182,0,0,0,4,14l22-1s-6.244-26.853-5-49,4-26,4-26,0.442,26.364,3,44,5,32,5,32,1.129-37.263,5-53,5.611-28.871,11-43a192.22,192.22,0,0,1,11-24s-6.389,33.621-6,50,0.629,35.43,3,46,8,24,8,24-1.193-35.608,2-52,17.02-64.152,20-71,18-35,18-35-8.25,56,3,91,33,77,33,77-7.08-18.183-10-36-6-63-6-63,9.07,51.611,15,66a159.823,159.823,0,0,0,13,25s-6.14-11.177-10-29-5-42-5-42,13.96,46.6,20,54,27,20,27,20-6.08-42.359-6-57,1-33,1-33l7,77s10.73-41.4,13-59,7.49-38.747,7-47a127.128,127.128,0,0,1,0-15s7.99,24.2,3,56-9.29,52.292-12,60-8,24-8,24l15-31s11.79-29.937,16-54,3.53-69.342,2-78-6-25-6-25,33.11,68.218,36,105,5,67,5,67,4.12-27.078,4-38,1.62-44.453,0-53-5-26-5-26,10.34,31.448,13,43,8.81,40.711,9,50,0,21,0,21,4.69-19.19,5-31,0-25,0-25,4.57,22.606,5,33,0,18,0,18,10.33-3.832,16,1,6,5,6,5,7.58-17.693,9-28,8-49,8-49,5.56,32.283,5,44-3.31,36.427-5,44a88.671,88.671,0,0,1-3,11s7.29-13.725,9-19,4-11,4-11-2.56,18.871-6,31-8,25-8,25l10-11s-4.32,30.312-6,42-1.7,12.747-11,16-10,2-10,2-3.43,9.046-7,16-5.31,17.159-29,33a366.07,366.07,0,0,1-49,27l-4,49s5.35-4.411,12,6,10,16,10,16,3.73,0.937,15,8,30,16,30,16,5.27-7.347,8-6a18.53,18.53,0,0,1,5,4l-11,18s6.55-5.539,9-9a18.931,18.931,0,0,1,5-5,55.035,55.035,0,0,0,6,4c2.97,1.648,9.4,4.655,28,6s49.75-.646,64,15,24.84,33.727,37,69,15.67,50.59,26,62,27.76,14.3,22,33-34,52-34,52,7.67,0.906,15,12,6,36,6,36l71-3-15-185s-7.41-14.826-26-56-43.39-77.538-49-128-12.96-159.966-14-173-4-71-4-71l25-12s-4.54,28.021,0,55,10.38,69.5,22,94,26.57,55.8,33,61,2-395,2-395c0.16-.055-8.37-0.814-40.67,8.2-4.12,1.148-12.93,3.032-12.93,3.032S1355.65,30.551,1343,20c-75.77-63.177-377-71-377-71L937-17s-47.918,72.051-53,79a321.634,321.634,0,0,0-19,31C860.73,101.247,853,118,853,118Zm728,12"/>
  <path id="シェイプ_40" data-name="シェイプ 40" class="cls-7" d="M1203,122s-1.71-27.727-4-35-9-19-9-19l24,19s-40.46-63.015-65-80-37-22-37-22h109s25.89,23.593,31,27,10.96,8.946,14,8,5.97-7.438,6-9,0.73-5.423,9-2,16.29-5.114,33,28,28.05,52.682,35,79,10.8,74.114,12,94,12.47,152.742,17,186,0.84,70.717,32,129,59,201,59,201l-35,107-32-20s0.98-23.638-2-29a49.58,49.58,0,0,0-11-13c-3.03-2.409-9-4-9-4a178.705,178.705,0,0,0,17-19c8.06-10.553,21.89-30.266,20-40s-5.26-11.438-14-19-11.15-5.655-21-28-14.45-43.1-19-54-15.05-38.193-27-51-13.01-16.1-30-18-41-3-41-3,14.87-36.38,20-51,20.55-67.66,22-76-0.71,40.407-4,57-6,22-6,22,14.89-38.865,19-58,8.8-83.561,5-98-4-16-4-16,8.95-23.986,12-39,10.3-57.4,10-60,0-11,0-11-5.75,25.167-13,46-17.96,46.027-21,49a16.244,16.244,0,0,0-4,6s10.95-25.293,14-46,7-65,7-65a254.329,254.329,0,0,1-11,51c-9.04,27.932-25.22,61.234-32,71s-11,14-11,14,3.73-3.031,8-29,6-46,6-46c0.66,0.254-11.38,28.086-19,38-3.76,4.886-7,10-7,10,1.87-5.653,15.91-25.36,10-59-7.42-42.246-4.58-57.213-6-64s-7.63,41.31-11,54a116.509,116.509,0,0,1-7,20s-11.24-6.789-15-6a12.977,12.977,0,0,0-6,3s-3.8-60.722-9-85S1203,122,1203,122Z"/>
  <path id="シェイプ_28" data-name="シェイプ 28" class="cls-7" d="M891,518l21-57s9.788,25.526,18,35a189.517,189.517,0,0,1,12,15s-9.456-16.88-14-29-16.214-48.2-16-51-2-12-2-12,12.851,33.158,21,46,39,54,39,54-1.292-.992-6,0-19.059,2.178-25,1-12.313-3.777-24-4-14.007-1.182-18,0S891,518,891,518Z"/>
  <path id="シェイプ_27" data-name="シェイプ 27" class="cls-7" d="M741,629s-1.038-39.056,24-85,70-123,70-123-25.4,60.663-33,81-32.01,75.783-36,96-8,61-8,61l-1,3s-1.807-10.988-4-17-5.92-11.609-8-13S741,629,741,629Z"/>
  <path id="シェイプ_17" data-name="シェイプ 17" class="cls-8" d="M996,511s-3.417-12.692-7-12-12.869,7.189-13,10,3.726,8.663,7,14,9,16,9,16-2.521-1.05-7-5-15.034-15.768-16-15-2.422.827-2,6,2.069,12.345,4,21,17.876,64.838,20,70,5.23,11.87,8,15a22.4,22.4,0,0,0,15,8c7.74,0.82,41.7,2.156,46,2s41.28-.556,44-1,22.56,0.076,32,0,50.46,0.191,54-1,7.42-1.471,11-12,9.84-24.2,12-29,8.35-20.231,11-27,9.87-27.823,11-31,2.44-7.833,1-9-3.39-5.937-6-3-12,12-12,12,4.2-7.851,7-12,3.77-6.206,3-7-4.51-4.478-6-3-12.98,17.225-14,23a51.6,51.6,0,0,0-1,8s2.17-3.257,3-1-3.13,14.024-5,19-2.28,5.957-4,4-2.38-4.943-7,6-10.7,20.457-9,24a12.574,12.574,0,0,0,4,5l-8,7s-4.21-8.382-9-7-19.29,8.652-23,10-28,1-28,1-12.94-2.446-15,2-3,6-3,6h-8s1.01-4.262-1-5-22,0-22,0l-15,1s1.03-1.758-4-2-11,0-11,0,1.01-3.342-2-4-14.25-6.268-17-9-8.14-3.377-10-3-4.66-5.029-5-9-1.6-9.161-2-14-3.25-7.5-6-11-7.23-9.031-7-15,2.607-3.163,5-5,2.91-2.815,2-9-3.432-17.6-7-19-4.277-.515-5-2-1.541-4.325,0-5S996,511,996,511Z"/>
  <path id="シェイプ_29" data-name="シェイプ 29" class="cls-7" d="M976,509s-40.648-69.461-44-86-13-73-13-73-6.238,30.84-4,40,3,15,3,15-12.914-25.923-13-46-1-57-1-57l-17-41s-0.155-24.352,5-46,12.521-44.864,15-49,7-14,7-14-5.13,48.462-3,57a138.412,138.412,0,0,1,3,17s1.111-32.185,4-42,4-13,4-13,0.829,10,1,18-0.81,30.319,0,42,5.676,43.235,6,49c0.84,14.936,19.08,50.187,24,62s15.71,39.49,24,47,34,26.934,41,30,27,12,27,12l1,47s-9.11,4.992-14,10c-5.05,5.175-5.49,8.227-6.49,9.839L1017,502l-21,8s-4.925-14.409-12-9S976,509,976,509Z"/>
  <path id="シェイプ_30" data-name="シェイプ 30" class="cls-7" d="M871,319s-14.506-20.721-19-33-9-27-9-27l8,12a90.041,90.041,0,0,1-6-32c-0.133-18.449.477-35.5,3-43a136.149,136.149,0,0,0,4-15s-3.047,21.1,0,39,10,42,10,42l3,5s-1.91-21.686-2-30,0.812-28.1,3-35,7-20,7-20l2,33s1.441,13.857,5,23a104.169,104.169,0,0,1,5,17l-5,19s-2.041,9.411,6,24,7,17,7,17-9.5-10.1-13-16-4-7-4-7Z"/>
  <path id="シェイプ_31" data-name="シェイプ 31" class="cls-7" d="M935,263l22-1s-2.835-8.05-4-25-0.7-21.831,0-34a136.358,136.358,0,0,1,2-18s3.076,41.987,5,51,4,24,4,24l-1-34s-1.863-17.588-2-23-2.488-44.82-2-49,1.327-21.11,4-30,9-30,9-30-15.179,20.676-19,30-14.606,35.313-16,45-5.795,35.871-6,44-1.688,21.9-.888,29.268C930.9,249.514,934.954,262.982,935,263Z"/>
  <path id="シェイプ_32" data-name="シェイプ 32" class="cls-7" d="M996,262s-10.812-55.063-5-78c9.32-36.8,12.25-52.419,26-75s28-43,28-43-7.36,17.053-8,35c-0.31,8.651-20.78,39.457-24.36,54.4-3.61,15.034-12.06,38.763-14.64,57.6C995.459,231.545,996,262,996,262Z"/>
  <path id="シェイプ_33" data-name="シェイプ 33" class="cls-7" d="M1070,270c0.04,0-13-35.573-14-40-2.77-12.24-4.41-11.727-6-31-1.59-19.21-5.39-44.755,2-71s10-34,10-34-4.84,45.53-5,55-0.04,57.893,2,69S1070,270,1070,270Z"/>
  <path id="シェイプ_34" data-name="シェイプ 34" class="cls-7" d="M1103,258l14,10s-7.24-34.272-7-47-1.32-31.9,0-36,2-12,2-12-0.53,20.294,2,37,4,44,4,44,7.93-30.587,10.54-46.058c2.54-14.99,9.18-45.461,9.12-54.8-0.07-9.227-.67-22.144-0.66-22.146s6.79,36.633,6,45-5.92,38.682-7,44-14,50-14,50,16.05-27.418,19-39,12.56-45.639,13-53,0-73,0-73,14.37,30.7,22,59,10.2,45.2,11,60,2,32,2,32,5.81-40.906,6.04-59.39c0.23-18.6-4.05-39.669-4.04-39.61s9.93,24.213,15,48c4.69,21.976,5.46,43.34,5,48-0.96,9.711,5.89-37.29,5-50s-10.54-72.2-15-82-40.7-70.411-68-89c-12.95-8.821-17-10-17-10a76.109,76.109,0,0,1,14,27c4.56,16.225,6,50,6,50s-8.62-28.41-12-36-27-33-27-33a302.262,302.262,0,0,1,7,53c1.12,28.717-1.06,65.45-1,99S1103,258,1103,258Z"/>
  <path id="シェイプ_35" data-name="シェイプ 35" class="cls-7" d="M1155,429l-5,49s2.91-3.991,9,3,12,19.445,13,20,28.24,15.881,34,19a40.824,40.824,0,0,0,10,4s2.68-7.2,6-7,6,3,6,3,10.7-19.831,14-34,9.36-36.516,12-50,9-53,9-53-9.61,23.388-16,37-13.22,28.224-23,42-16,17-16,17,11.28-14.886,18-31,21.28-62.653,23-67,9-34,9-34-11.38,6.292-15,7-4,1-4,1-9.58,21.936-21,34-36.19,26.018-46,31S1155,429,1155,429Z"/>
  <path id="シェイプ_36" data-name="シェイプ 36" class="cls-7" d="M1233,526s7.05,5.413,10,6,19,3,19,3,4.36-13.945,8-25,9.75-32.5,12-43,8-47,8-47-7.57,17.733-13,31-21.33,40.41-28,50-17,25-17,25h1Z"/>
  <path id="シェイプ_38" data-name="シェイプ 38" class="cls-7" d="M1254,364s13.01-25.852,18-45,10-59,10-59c0.55-.137-12.62,29.433-15.75,31.544-5.19,3.5-5.62,27.227-6.25,36.456S1254,364,1254,364Z"/>
  <path id="シェイプ_23" data-name="シェイプ 23" class="cls-9" d="M1073,621l-5,19,10,1s0.72-9.137,2-12,1-8,1-8h-8Z"/>
  <path id="シェイプ_24" data-name="シェイプ 24" class="cls-9" d="M1149,618l3,21h12a94.275,94.275,0,0,0-2-12c-1.44-5.9-4-13-4-13Z"/>
  <path id="シェイプ_25" data-name="シェイプ 25" class="cls-9" d="M1202,573s4.24-5.8,6-11a30.29,30.29,0,0,0,2-10,15.918,15.918,0,0,1,1-5s8.11,27.848,8,33-1,5-1,5l-16-11v-1Z"/>
  <path id="シェイプ_6" data-name="シェイプ 6" class="cls-6" d="M842-5c-2.96-.769-3.449-3.529-31,4C715.353,25.138,694.454,87.012,701,216c2.932,57.784-23.06,166.474-20,198s23.714,106.445,29,95c7.643-16.549,34.715-105.155,65-178,26.166-62.939,50.771-122.452,53-160C828.465,163.162,844.783-4.277,842-5Z"/>
  <path id="シェイプ_21" data-name="シェイプ 21" class="cls-10" d="M1047,478s-24.8,11.96-20,23,13.47,19.416,20,24,16.15,10.668,22,13a52.013,52.013,0,0,0,12,3s-12.88,21.566-16,30-12.09,29.377-14,38-7,32-7,32,11.02,12.275,15,14,6,1,6,1,5.95-29.2,9-40,14-45,14-45l7-16h12s6.84,14.622,9,23,8.52,29.424,10,39,2.87,34.1,3,36,21.14-2.342,22-9-3.94-29.551-7-41-15.27-43.053-18-49a135.768,135.768,0,0,0-8-14l-2-2s21.66-.469,34-12,13.25-11.313,17-18,4-9,4-9a107.933,107.933,0,0,0-9-14c-4.41-5.431-5.01-6.559-8-7a23.519,23.519,0,0,0-6,0v12s2.8-5.456,4-1-10.89,17.8-18,22-23,14-23,14-1.96-2.422-4-2-8.18,1.057-11,2a45.658,45.658,0,0,0-5,2s-14.48-5.745-21-10-16.98-11.786-20-15-6.7-11.269-6-12,4-2,4-2Zm175,399"/>
  <path id="シェイプ_22" data-name="シェイプ 22" class="cls-9" d="M983,590l17-15c2.7-3.1,4.84,1.661,5,7,0.14,4.642,2.71,9.3.38,9.671L985,597Z"/>
  <path id="シェイプ_12" data-name="シェイプ 12" class="cls-8" d="M1360,200s31.35-7.345,30-14a147.787,147.787,0,0,1-2-15s22.19-2.046,26-26-2-32-2-32-3.37-3.963,1-9,10.31-17.814,8-26-2.62-13.939-6-21-15-24-15-24,3.78-11.55,5-16-1.73-9.734-9-9-29,10-29,10l-20-4s-8.07-12.285-9-14-102-4-102-4,11.87,12.629,20,16,10.66,7.866,13,5,3-9,3-9,8.96-2.752,16,2,27,14.583,28,21,11,31,11,31,10.63,21.114,12,24,11.56,32.614,14,48S1360,200,1360,200Zm185,17"/>
  <path id="シェイプ_14" data-name="シェイプ 14" class="cls-11" d="M1233-1c4.08,1.486,26.9,21.108,32,21s7.13-4.787,7-9,7.56-4.019,22,3c15.15,7.359,34.17,50.058,35,53,0,0,8.39-9.526,6-20s-3-13-3-13,10.58,6.832,9-2-6.78-26.95-13-33S1228.92-2.486,1233-1Z"/>
  <path id="シェイプ_15" data-name="シェイプ 15" class="cls-12" d="M1260-2c0.64,0.448,14.67,8.449,13,11s3.49-1.575-1-6a47.935,47.935,0,0,0-7-6S1259.36-2.448,1260-2Z"/>
  <path id="シェイプ_13" data-name="シェイプ 13" class="cls-13" d="M1346,109s7.45,22.6,8,29,2,16,2,16,14.15-20.975,19-44,10.79-51.918,3-70-9.89-23.22-16-23c-6.58.237-18.91-5.894-18-4s9.06,29.3,9,42-0.33,31.166-2,39A80.235,80.235,0,0,1,1346,109Z"/>
  <path id="シェイプ_44" data-name="シェイプ 44" class="cls-11" d="M1389,170c-1.26-.416-9.3-0.8-16-8s-11-17-11-17l-2,3s9.42,16,14,19,15,4,15,4S1390.26,170.416,1389,170Z"/>
  <path id="シェイプ_45" data-name="シェイプ 45" class="cls-11" d="M1414,103s-18.06-.729-25-2a56.933,56.933,0,0,1-11-3l-1,7s18.44,0.1,23,3,12,5,12,5-1.19-4.144,0-6a46,46,0,0,1,3-4h-1Z"/>
  <path id="シェイプ_46" data-name="シェイプ 46" class="cls-11" d="M1374,31l4,8s14.84-4.757,20-3,6,2,6,2-3.1-2.137-3-5a14.687,14.687,0,0,0,0-3Z"/>
  <path id="シェイプ_7" data-name="シェイプ 7" class="cls-8" d="M833,193s-23.792-18.633-26-27-4.277-17.7-3-18-12.134-14.946-11-27,1.357-38.208,5-37,2.841-5.464,3-10-5.3-6.888,3-24,19.179-33.683,29-30,8.477,2.242,6-6-2.547-12.554,1-15,41.517-12.889,43-9,76-7,76-7S972.906-5.488,969-5s-22.116,5.723-24,16-3.068,9.518-12,14-9.068,3.723-9,0,0.049-1.12-8,3-31.346,26.915-52,68-25.62,57.75-27,71S833,193,833,193Zm303-311"/>
  <path id="シェイプ_9" data-name="シェイプ 9" class="cls-11" d="M868,90s-7.7-24.457-1-44,8-15,8-15-1.526-15.817,3-24a112.679,112.679,0,0,0,6-12l21-1s53.737,0.369,54.063,1.61C959.489-2.769,945.658,7.076,946,9c0.357,2.011,3.48,1.323-1,7-4.51,5.715-16.344,18-20,12-2.634-4.32-5.978-1.007-6-1,0,0-4.936.079-16,13s-11.174,10.106-22,27S868,90,868,90Z"/>
  <path id="シェイプ_8" data-name="シェイプ 8" class="cls-13" d="M877,9c-0.071,1.569-.248,18.278-3,21s-8.771,5.409-14,15-10.51,24.091-10,38,5,28,5,28l-15,45s-7.215,3.4-10-26-5.442-33.5,1-59,9.1-37.829,18-47S863.059,9.419,869,9,877.071,7.431,877,9Z"/>
  <path id="シェイプ_10" data-name="シェイプ 10" class="cls-12" d="M894,31s12.05-15.006,20-22,6.729-9.191,10-12,23-1,23-1-2.271,8.169-11,9-7.793,1.857-13,6-7.828,4.715-14,10"/>
  <path id="シェイプ_41" data-name="シェイプ 41" class="cls-11" d="M805,146s-0.78,15.1,2,19,25-19,25-19l-1-12Z"/>
  <path id="シェイプ_42" data-name="シェイプ 42" class="cls-11" d="M799,84l29-1,3-13-30,1s0.724,6.543,0,9A12.251,12.251,0,0,1,799,84Z"/>
  <path id="シェイプ_43" data-name="シェイプ 43" class="cls-11" d="M841,21l7,3,4-3L838,9a15.376,15.376,0,0,1,2,6A60.486,60.486,0,0,0,841,21Z"/>
  <path id="シェイプ_50" data-name="シェイプ 50" class="cls-14" d="M686,535s39.247-51.192,49-75,11-53,11-53,5.247,23.04,2,41-17.6,64.154-21,72-11,22-11,22Z"/>
  <path id="シェイプ_48" data-name="シェイプ 48" class="cls-15" d="M608,520c-5.29-4.89-59.51-112.31-63-145s24-129,24-129-0.11,34.89,12,86,17.312,83.454,26,102,29,70,29,70l-12,42S613.29,524.89,608,520Z"/>
  <path id="シェイプ_53" data-name="シェイプ 53" class="cls-15" d="M746,408l4-56-17,14s2.747,6.932,7,24,5,23,5,23Z"/>
  <path id="シェイプ_54" data-name="シェイプ 54" class="cls-15" d="M731,285s-11.274-58.14-19-80-16.225-60.11-5-37,15,28,15,28-6.336-34.35-21-52-27-27-27-27l-23,33s10.978,14.059,14,24,11,40,11,40-1.684,10.516,6,24,23.17,53.206,26,55,5,10,5,10,3.665-8.7,9-10S731,285,731,285Z"/>
  <path id="シェイプ_47" data-name="シェイプ 47" class="cls-16" d="M1474,34,633,524c-14.692-8.588-10.207-11.836-21-22-13.055-12.3.593-19.508-14.812-57.789C580.464,402.655,579.038,409.908,574,398c-8.719-20.61-6.224-10.175-21-62l-23-58s29.976,5.839,36,38c2.887,15.416,11.531,30.314,18,34s-4-26-4-26c0.939,0.818-4.545-5.878-5.183-22.3-1.207-31.085,3.544-43.947,4.183-51.7,1.039-12.6,51.026-116.849,34-91-3.682,5.589,3.723,107.99,22,104,1.522-.332,27.213-181.72,29-170,8.559,56.152,31.644,155.069,27.844,180.34-10.232,68.046.962,20.618,8.156,6.66l29-53c39.014-45.177-3.4,19.91-2,72,0.848,31.606-.981,41.871-4,45l50-42c-5.369,37.9-29.287,65.061-33,91-5.826,40.7,8.2,40.829-11,82-22.746,48.787-5.32,6.241-13.789,22.776C699.991,527.492,715.052,525.028,700,535c-14.426,9.558-26.685,16.729-31,18S647.692,532.588,633,524Z"/>
  <path id="シェイプ_49" data-name="シェイプ 49" class="cls-14" d="M545,381s-29.515-99.335-28-110,2.515-64.3,9-83S585.273,87.39,607,58,659-4,659-4L763-1s-41.022,47.976-61,75-48.9,69.079-66,99-21,35-21,35,20.89-62.852,23-65,3-7,3-7-21.786,24.562-31,46-25,44-25,44-11.217-.955-21,41S545,381,545,381Z"/>
  <path id="シェイプ_51" data-name="シェイプ 51" class="cls-14" d="M617,503s24.127-101.083,33-114-3.684-17.41,0-21,24-19,24-19-1.143-15.9,11-21,20.83-24.588,34-33,20-16,20-16,11.424-21.157,1-11-14,11-14,11,12.316-19.919,18-24,36-27,36-27l20-21,14-14,6-5s-8.873,60.011-25,90-29.17,66.674-58,84-40.576,26.951-48,39-39,52-39,52l-26,63Z"/>
  <path id="シェイプ_52" data-name="シェイプ 52" class="cls-15" d="M775,234s7.37-27.156,4-57-4.413-40.869-12-60-14.3-30.878-21-49a145.117,145.117,0,0,0-15-30l44-54s1.859,16.067,6,25,15,33,15,33l5,15s-3.6,5.5-2,10,2.107,6.355,2,10a8.787,8.787,0,0,1-4,7c-1.359.73-1.669,2.906-2,6s-0.891,14.061-1,22-2.03,14.4,0,19,8.87,14.272,9,16a54.394,54.394,0,0,0,1,10c1.075,5.442,3.609,11.056,6,14s8,9,8,9l-3,12Z"/>
  <path id="シェイプ_55" data-name="シェイプ 55" class="cls-15" d="M615,49L589,1s-13.624-13.122-5,21,14.81,36.764,5,46-6.52,12.361-20,6-18.057-11.975-34-37S511-7,511-7L468-9s3.892,37.925,15,64,44.119,49.854,58,53,34-4,34-4Z"/>
  <path id="袖口2" class="cls-17" d="M644,637s-13.65,9.13-12,22,0,17,0,17-2.39-1.683-6,1-11.359,16.5-13,22-6.036,13.5-2,18,9.666,9.913,8,11-4.818.981-6,0-6.545,7.176-8,17-7.21,32.951-1,40,12.828,13.3,14,15-5,12-5,12l73,4-4-72Z"/>
  <path id="右手-2" data-name="右手" class="cls-4" d="M681,811s-6.744-37.194-10-63-9.391-54.475-15-72-12.006-34.769-31-50-16.4-9.9-33-34-17.14-20.779-31-29-20.981-12.605-8-20,25.823,4.594,30,6,12,8,12,8-9.074-12.5-14-23-9.093-9.931-6-23,8.832-24.957,10-36,2.795-33.056,4-35,2.384-5.738,6-3,8.683,7.643,8,21-2.289,32.314-3,41,1.552,16.7,9,28,10.122,19.994,14,18-5-34-5-34-6.074-21.048-6-29,10.487-30.319,11-41,0.421-21.882,4-22,11.318-1.092,13,11,2.337,36.851,1,46-2.383,5.623,1,20,10.842,37.012,13,41,4.458,8.667,6,7-1.8-15.068-4-23-5.784-23.648-5-39,2.188-41.664,3-46,3.094-20.9,7-18,5.047,3.235,7,14,5.3,40.46,8,50,4.178,35.7,10,46-0.158,8.058,3,8,6.094,2.431,9-1,11.019-27.94,11-32-6.934-25.238-6-35,1.29-29.719,7-30,4.515-4.812,11,21,11.515,21.895,9,40-3.224,46.638,1,65-1.85,33.071-1,57,6.234,49.7,17,76,25,119,25,119Z"/>
  <path id="右手影" class="cls-18" d="M721.347,562.658c12.177,14.378,7.8,33.413,8.653,57.342s7.234,50.7,18,77,25,119,25,119l-92-5s-6.744-37.194-10-63-9.391-54.475-15-72-12.006-34.769-31-50-16.4-9.9-33-34-17.14-20.779-31-29-17.862-9.487-3-11c13.648-1.39,24.823,11.594,29,13s13,7,13,7,5-6.694,16-3c10.846,3.643,7.5,3.8,22,5,8.8,0.729,5.493,3.031,19-6,7.461-4.988,5.12-4.4,16-5,12.558-.688,11.871.859,17.4-1.574,6.109-2.688,9.055-4.11,13.6-5.426C709.608,554.376,713.748,553.687,721.347,562.658Z"/>
  <path id="シェイプ_1" data-name="シェイプ 1" class="cls-19" d="M767,705c-0.768,1.419,17,111,17,111l-50,2S767.768,703.581,767,705Z"/>
  <path id="袖口1" class="cls-17" d="M731,628s-4.372,30.119,2,42a194.028,194.028,0,0,1,13,32,40.941,40.941,0,0,0,4,9s-1.763-4.8-5,2-10.471,18.843-6,27,7.87,7.936,6,13-9.539,19.171-11,21-4.681,2.171-7,2-2.749-2.96-8,8-7.532,8.4-4,16,2,12,2,12l22,3s20.3-36.816,24-52,6.639-43.671,5-53-4.745-30.21-9-43-6.372-29.246-13-34S731,628,731,628Zm38,215"/>
  <path id="シェイプ_2" data-name="シェイプ 2" class="cls-20" d="M628,684s-1.414,2.587,3-3,8.352-9.309,7-13,3.782-9.2,8,19,9,45,9,45-8.1-24.517-16-35S628,684,628,684Z"/>
  <path id="シェイプ_4" data-name="シェイプ 4" class="cls-20" d="M753,711s12.42-10.524,11-18,4.667,31.123,2,47,0.193,4.873-5-9S753,711,753,711Z"/>
  <path id="シェイプ_5" data-name="シェイプ 5" class="cls-20" d="M754,655s5.657,17.713,9,26-2.787-1.218-8-7,1.115-3.862-6-2-1.163-19.922,0-19"/>
  <path id="シェイプ_3" data-name="シェイプ 3" class="cls-20" d="M614,749s4.658,7.257,7-4a84.731,84.731,0,0,0,2-19l18,39C641.624,765.493,622.5,763.836,614,749Z"/>
</svg>
